<svg id="food-tray" xmlns="http://www.w3.org/2000/svg" width="36.051" height="33.051" viewBox="0 0 36.051 33.051">
  <g id="Group_2" data-name="Group 2" transform="translate(1.502 24.797)">
    <g id="Group_1" data-name="Group 1">
      <path id="Path_1" data-name="Path 1" d="M54.14,373.83a1.118,1.118,0,0,0-.887-.43h-30.8a1.12,1.12,0,0,0-1.092,1.394l1.5,6.007a1.129,1.129,0,0,0,1.092.852h27.8a1.129,1.129,0,0,0,1.092-.852l1.5-6.007a1.1,1.1,0,0,0-.2-.965Z" transform="translate(-21.323 -373.4)" fill="#60b246"/>
    </g>
  </g>
  <g id="Group_5" data-name="Group 5" transform="translate(16.529 3.761)">
    <g id="Group_4" data-name="Group 4" transform="translate(0 0)">
      <g id="Group_3" data-name="Group 3">
        <path id="Path_2" data-name="Path 2" d="M236.2,80.707a1.5,1.5,0,0,1-1.5-1.5V76.2a1.5,1.5,0,0,1,3,0v3.007A1.5,1.5,0,0,1,236.2,80.707Z" transform="translate(-234.7 -74.7)" fill="#60b246"/>
      </g>
    </g>
  </g>
  <g id="Group_7" data-name="Group 7" transform="translate(15.022 0)">
    <g id="Group_6" data-name="Group 6" transform="translate(0 0)">
      <circle id="Ellipse_1" data-name="Ellipse 1" cx="3.007" cy="3.007" r="3.007" fill="#60b246"/>
    </g>
  </g>
  <g id="Group_9" data-name="Group 9" transform="translate(1.578 7.514)">
    <g id="Group_8" data-name="Group 8" transform="translate(0 0)">
      <path id="Path_3" data-name="Path 3" d="M38.957,127.987c-8.261-.092-15.43,6.43-16.557,14.649H55.12C54.014,134.565,47.1,128.079,38.957,127.987Zm9.993,13.627a1.118,1.118,0,0,1-1.113-1.127,6.393,6.393,0,0,0-6.324-6.458,1.127,1.127,0,1,1,.028-2.254,8.651,8.651,0,0,1,8.55,8.726A1.125,1.125,0,0,1,48.951,141.615Z" transform="translate(-22.4 -127.986)" fill="#60b246"/>
    </g>
  </g>
  <g id="Group_11" data-name="Group 11" transform="translate(0 24.417)">
    <g id="Group_10" data-name="Group 10" transform="translate(0 0)">
      <path id="Path_4" data-name="Path 4" d="M34.558,368H1.5a1.5,1.5,0,1,0,0,3H34.551a1.5,1.5,0,0,0,.007-3Z" transform="translate(0 -368)" fill="#60b246"/>
    </g>
  </g>
</svg>
