<svg xmlns="http://www.w3.org/2000/svg" width="42.523" height="24.8" viewBox="0 0 42.523 24.8">
  <path id="truck" d="M39.8,107.957c-.133-.028-.26-.054-.372-.084-1.271-.33-1.851-.512-2.279-1.339l-1.624-3.288a3.717,3.717,0,0,0-3-1.828H29.633v-3.8A1.238,1.238,0,0,0,28.4,96.384L8.256,96.4a1.17,1.17,0,0,0-1.164,1.227v1.122H1.932a1.932,1.932,0,0,0,0,3.865H7.092v1.852H3.714a1.932,1.932,0,0,0,0,3.865H7.092v1.852H5.5a1.932,1.932,0,0,0,0,3.865h1.6v1.937a1.238,1.238,0,0,0,1.237,1.237h2.1a4.631,4.631,0,0,0,9.164,0h8.479c.044,0,.089,0,.134-.006a4.631,4.631,0,0,0,9.165.006h3.009a2.151,2.151,0,0,0,2.148-2.148v-3.645C42.523,108.527,40.887,108.184,39.8,107.957Zm-7.022,6.913a1.683,1.683,0,1,1-1.683,1.683A1.686,1.686,0,0,1,32.783,114.87Zm-3.15-7.175v-4.484h2.21a2.873,2.873,0,0,1,2.286,1.388l1.445,2.926q.046.089.1.17H29.633Zm-12.944,8.859a1.684,1.684,0,1,1-1.684-1.683A1.686,1.686,0,0,1,16.689,116.554Z" transform="translate(0 -96.384)" fill="#60b246"/>
</svg>
