<?xml version="1.0" encoding="utf-8"?>
<!-- Generator: Adobe Illustrator 23.0.5, SVG Export Plug-In . SVG Version: 6.00 Build 0)  -->
<svg version="1.1" id="Layer_1" xmlns="http://www.w3.org/2000/svg" xmlns:xlink="http://www.w3.org/1999/xlink" x="0px" y="0px"
	 viewBox="0 0 256 83" style="enable-background:new 0 0 256 83;" xml:space="preserve">
<style type="text/css">
	.st0{fill:#FFA332;}
</style>
<g>
	<path class="st0" d="M132.4,26.4c-0.1,11.5,10.3,17.9,18.1,21.8c8.1,3.9,10.8,6.4,10.7,9.9c-0.1,5.4-6.4,7.7-12.4,7.8
		c-10.4,0.2-16.4-2.8-21.2-5.1l-3.7,17.5c4.8,2.2,13.7,4.2,23,4.2c21.7,0,35.9-10.7,36-27.4c0.1-21.1-29.2-22.3-29-31.7
		c0.1-2.9,2.8-5.9,8.8-6.7c3-0.4,11.1-0.7,20.4,3.6l3.6-17c-5-1.8-11.4-3.6-19.4-3.6C146.9,0,132.5,10.9,132.4,26.4 M221.6,1.5
		c-4,0-7.3,2.3-8.8,5.9l-31,74.1h21.7l4.3-11.9h26.5l2.5,11.9H256l-16.7-80H221.6 M224.7,23.1l6.3,30h-17.2L224.7,23.1 M106.1,1.5
		L89,81.4h20.7l17.1-80H106.1 M75.5,1.5L53.9,55.9L45.2,9.6c-1-5.2-5.1-8.1-9.5-8.1H0.5L0,3.8c7.2,1.6,15.4,4.1,20.4,6.8
		c3,1.7,3.9,3.1,4.9,7l16.5,63.8h21.9l33.5-80H75.5"/>
</g>
</svg>
